<svg width="713" height="464" viewBox="0 0 713 464" fill="none" xmlns="http://www.w3.org/2000/svg">
<path d="M83.5 3.75C91.12 1.74 94.62 1.62 157.5 1.07C193.8 0.75 248.93 0.67 280 0.89C311.07 1.11 336.73 1.43 337 1.62C337.27 1.81 330.3 8.88 321.5 17.33C312.7 25.79 302.24 35.7 298.25 39.36C294.26 43.02 291 46.23 291 46.51C291 46.78 290.21 47.8 289.24 48.76C288.27 49.72 286.13 51.55 284.49 52.81C282.85 54.08 273.89 62.18 264.6 70.81C255.3 79.45 238.31 95.4 206 126.01L205.5 461.51L78 462.01V407.76C78 377.92 77.66 302.55 76.5 127.01H0L0.56 116.76C0.87 111.12 1.54 102.69 2.05 98.01C2.56 93.33 3.66 86.92 4.49 83.76C5.32 80.6 7.58 73.96 9.5 69.01C11.42 64.06 13 59.34 13 58.51C13 57.68 13.45 56.79 14 56.51C14.55 56.23 17.47 52.63 20.5 48.51C23.53 44.38 29.04 37.8 32.75 33.89C36.46 29.97 43.1 24.16 47.5 20.97C51.9 17.78 60 13.08 65.5 10.51C71 7.95 79.1 4.91 83.5 3.75Z" fill="#030303"/>
<path d="M584 200.01L584.01 100V0L712.5 0.51L712.46 366.51L709.03 378.51C707.1 385.3 703.5 394.63 700.74 400.01C698.07 405.23 694.22 411.53 692.2 414.01C690.18 416.48 685.71 421.55 682.26 425.26C678.82 428.97 676 432.46 676 433.01C676 433.56 674.99 434.21 673.75 434.45C672.51 434.69 669.48 436.43 667 438.32C664.52 440.2 658.34 443.83 653.25 446.38C648.16 448.93 643.77 451.46 643.5 452.01C643.23 452.56 641.65 453.01 640 453.01C638.35 453.01 636.89 453.38 636.75 453.83C636.61 454.28 630.88 455.89 624 457.4C617.13 458.91 607.9 460.54 603.5 461.02C599.1 461.5 592.91 462.14 584 463.01L583.75 345.09C583.61 280.24 583.17 226.8 582.78 226.34C582.38 225.88 581.03 226.24 579.78 227.14C578.52 228.04 571.83 234.11 564.9 240.64C557.96 247.17 540.66 263.53 500.6 301.51L491.55 302.17C486.57 302.53 467.99 302.86 418 303.01V382.01C418 444.15 417.73 461.17 416.75 461.74C416.06 462.14 387.38 462.65 290.5 463.26L289.76 459.39C289.35 457.25 289.02 383.51 289.01 135.51L339.29 85.01C366.95 57.23 393.95 29.9 399.29 24.26C404.63 18.62 409.23 14.01 409.5 14.01C409.77 14.01 411.41 12.86 413.14 11.45C415.58 9.45 416.46 9.17 417.12 10.2C417.59 10.92 417.98 53.92 418 200.01H584Z" fill="#030303"/>
</svg>
